# xmcd
#
# Track frame offsets:
#	150
#	12940
#	28391
#	39662
#	57676
#	68605
#	85853
#	98124
#	110283
#	120735
#
# Disc length: 1776 seconds
#
# Revision: 0
# Processed by: cddbd v1.5.1PL0 Copyright (c) Steve Scherf et al.
# Submitted via: EasyCDDAExtractor 8.1.2.3
#
DISCID=8306ee0a
DTITLE=Ezequiel Peña - El de Nayarit
DYEAR=2005
DGENRE=Mariachi
TTITLE0=Una paloma blanca
TTITLE1=Beso a beso
TTITLE2=El de Nayarit
TTITLE3=El alazan y el rosillo
TTITLE4=Murio la flor
TTITLE5=Nube gris
TTITLE6=La Gitanilla
TTITLE7=Amigo mio (a dueto con Lorenzo de Monteclaro)
TTITLE8=Por una mujer casada
TTITLE9=7 dias a la semana
EXTD=
EXTT0=
EXTT1=
EXTT2=
EXTT3=
EXTT4=
EXTT5=
EXTT6=
EXTT7=
EXTT8=
EXTT9=
PLAYORDER=
